<svg width="19" height="17" viewBox="0 0 19 17" fill="none" xmlns="http://www.w3.org/2000/svg">
<path d="M4.15465 9.68115L9.36911 14.5796L9.36913 14.5796C9.46753 14.672 9.51673 14.7183 9.56716 14.7473C9.7216 14.8362 9.9117 14.8362 10.0661 14.7473C10.1166 14.7183 10.1658 14.672 10.2642 14.5796L10.2642 14.5796L15.4786 9.68116C16.9458 8.30294 17.1239 6.03495 15.89 4.44455L15.658 4.14551C14.1819 2.24294 11.2189 2.56201 10.1816 4.73524C10.0351 5.04222 9.59816 5.04222 9.45165 4.73524C8.41443 2.56201 5.45144 2.24293 3.97531 4.14551L3.74329 4.44455C2.50936 6.03495 2.68752 8.30294 4.15465 9.68115Z" fill="#C4C4C4" fill-opacity="0.4"/>
<path d="M8.67305 15.2977L8.67307 15.2978L8.68444 15.3084L8.68445 15.3085C8.69008 15.3137 8.69658 15.3199 8.70389 15.3269C8.77164 15.3914 8.90885 15.5222 9.06819 15.6139C9.53151 15.8807 10.1018 15.8807 10.5651 15.6139C10.7244 15.5222 10.8617 15.3914 10.9294 15.3269C10.9367 15.3199 10.9432 15.3137 10.9488 15.3085L10.9489 15.3084L10.9602 15.2978L10.9602 15.2977L16.1633 10.41C18.0064 8.67863 18.2302 5.82948 16.6801 3.83155L16.4481 3.53251C14.7296 1.31759 11.4718 1.40277 9.81665 3.44968C8.16151 1.40277 4.90369 1.31759 3.18522 3.53251L2.95321 3.83155L3.69765 4.40914L2.95321 3.83155C1.40309 5.82948 1.6269 8.67863 3.46998 10.41L8.67305 15.2977Z" stroke="#C4C4C4" stroke-opacity="0.4" stroke-width="2"/>
</svg>
