<svg width="20" height="20" viewBox="0 0 20 20" fill="none" xmlns="http://www.w3.org/2000/svg">
<path d="M17.8101 5.17791C18.4368 4.78625 18.4368 3.87358 17.8101 3.48192L14.0302 1.1195C13.3642 0.703218 12.5002 1.18206 12.5002 1.9675V6.69233C12.5002 7.47777 13.3642 7.95661 14.0302 7.54033L17.8101 5.17791Z" fill="white"/>
<path d="M2.28483 16.0112C1.65816 15.6196 1.65816 14.7069 2.28483 14.3152L6.0647 11.9528C6.73074 11.5365 7.5947 12.0154 7.5947 12.8008V17.5256C7.5947 18.3111 6.73075 18.7899 6.0647 18.3736L2.28483 16.0112Z" fill="white"/>
<path d="M3.33358 9.16666V9.16666C3.33358 6.40523 5.57216 4.16666 8.33358 4.16666V4.16666H12.5002" stroke="white" stroke-width="2" stroke-linecap="round" stroke-linejoin="round"/>
<path d="M15.8336 10V10C15.8336 12.7614 13.595 15 10.8336 15V15H6.66691" stroke="white" stroke-width="2" stroke-linecap="round" stroke-linejoin="round"/>
</svg>
