<svg width="20" height="20" viewBox="0 0 20 20" fill="none" xmlns="http://www.w3.org/2000/svg">
<path d="M13.3335 15C12.0192 15 10.7889 14.4855 9.8761 13.6122" stroke="white" stroke-width="2" stroke-linecap="round" stroke-linejoin="round"/>
<path d="M5.96243 6.70996C4.82411 5.6334 3.29712 5 1.66681 5" stroke="white" stroke-width="2" stroke-linecap="round" stroke-linejoin="round"/>
<path d="M18.6434 16.0112C19.27 15.6196 19.27 14.7069 18.6434 14.3152L14.8635 11.9528C14.1974 11.5365 13.3335 12.0154 13.3335 12.8008V17.5256C13.3335 18.3111 14.1974 18.7899 14.8635 18.3736L18.6434 16.0112Z" fill="white"/>
<path d="M13.3335 5V5C11.315 5 9.49444 6.21369 8.71809 8.07692L7.43604 11.1538C6.4656 13.4829 4.18994 15 1.66681 15V15" stroke="white" stroke-width="2" stroke-linecap="round" stroke-linejoin="round"/>
<path d="M17.81 6.01123C18.4367 5.61956 18.4367 4.7069 17.81 4.31523L14.0301 1.95281C13.3641 1.53653 12.5001 2.01537 12.5001 2.80081V7.52565C12.5001 8.31108 13.3641 8.78993 14.0301 8.37365L17.81 6.01123Z" fill="white"/>
</svg>
